<?xml version="1.0" standalone="no"?>
<!DOCTYPE svg PUBLIC "-//W3C//DTD SVG 20010904//EN"
 "http://www.w3.org/TR/2001/REC-SVG-20010904/DTD/svg10.dtd">
<svg version="1.0" xmlns="http://www.w3.org/2000/svg"
 width="280.000000pt" height="280.000000pt" viewBox="0 0 280.000000 280.000000"
 preserveAspectRatio="xMidYMid meet">
<metadata>
Created by potrace 1.14, written by Peter Selinger 2001-2017
</metadata>
<g transform="translate(0.000000,280.000000) scale(0.100000,-0.100000)"
fill="#000000" stroke="none">
<path d="M619 2452 c-14 -2 -15 -102 -15 -985 l1 -982 108 -3 107 -3 0 798 0
797 66 -89 c36 -50 74 -102 85 -116 11 -14 248 -331 528 -705 l509 -679 89 -3
89 -3 -1 988 0 988 -107 0 -107 0 0 -784 c0 -431 -2 -785 -4 -787 -2 -3 -270
350 -595 783 l-590 788 -73 0 c-41 0 -81 -1 -90 -3z"/>
</g>
</svg>
